<svg fill="#000000" xmlns="http://www.w3.org/2000/svg"  viewBox="0 0 80 80" width="80px" height="80px"><path fill="none" stroke="#000000" stroke-miterlimit="10" stroke-width="2" d="M24,64l-13,5l5-13l43.536-43.536c1.953-1.953,5.118-1.953,7.071,0l0.929,0.929c1.953,1.953,1.953,5.118,0,7.071L24,64z"/><path d="M16.6 66.6L11 69 13.4 63.4z"/><path fill="none" stroke="#000000" stroke-miterlimit="10" stroke-width="2" d="M55.964 14.843H63.035V26.157H55.964z" transform="rotate(-45.001 59.5 20.5)"/><path d="M41 35A1 1 0 1 0 41 37 1 1 0 1 0 41 35zM44 32A1 1 0 1 0 44 34 1 1 0 1 0 44 32zM47 29A1 1 0 1 0 47 31 1 1 0 1 0 47 29zM50 26A1 1 0 1 0 50 28 1 1 0 1 0 50 26zM53 23A1 1 0 1 0 53 25 1 1 0 1 0 53 23zM23 53A1 1 0 1 0 23 55 1 1 0 1 0 23 53zM26 50A1 1 0 1 0 26 52 1 1 0 1 0 26 50zM29 47A1 1 0 1 0 29 49 1 1 0 1 0 29 47zM32 44A1 1 0 1 0 32 46 1 1 0 1 0 32 44zM35 41A1 1 0 1 0 35 43 1 1 0 1 0 35 41zM38 38A1 1 0 1 0 38 40 1 1 0 1 0 38 38z"/><path fill="none" stroke="#000000" stroke-miterlimit="10" stroke-width="2" d="M16,56c0,0,2,0,3,1s1,3,1,3s2,0,3,1s1,3,1,3"/></svg>